# xmcd CD database file
#
# Track frame offsets:
#	150
#	10544
#	26498
#	42922
#	53138
#	67062
#	80714
#	92577
#	102998
#	117379
#	132116
#	152539
#
# Disc length: 2334 seconds
#
# Revision: 0
# Processed by: cddbd v1.5.2PL0 Copyright (c) Steve Scherf et al.
# Submitted via: CDex 1.51
#
DISCID=92091c0c
DTITLE=Dave Danny - Blues `n` Stuff
DYEAR=2014
DGENRE=Blues
TTITLE0=Come On Down To My House
TTITLE1=This Sporting Life
TTITLE2=Evangelina
TTITLE3=When the Roses Bloom Again
TTITLE4=Blue Wing
TTITLE5=A Couple of Bears
TTITLE6=Me and the Devil
TTITLE7=NarrowEscape
TTITLE8=That LonesomeTrain
TTITLE9=New York City`s Killin` Me
TTITLE10=Mississippi Blues
TTITLE11=Minglewood Blues
EXTD=YEAR: 2014
EXTT0=
EXTT1=
EXTT2=
EXTT3=
EXTT4=
EXTT5=
EXTT6=
EXTT7=
EXTT8=
EXTT9=
EXTT10=
EXTT11=
PLAYORDER=
